<?xml version="1.0" encoding="utf-8"?>
<!-- Generator: Adobe Illustrator 19.0.0, SVG Export Plug-In . SVG Version: 6.00 Build 0)  -->
<svg version="1.1" id="图层_1" xmlns="http://www.w3.org/2000/svg" xmlns:xlink="http://www.w3.org/1999/xlink" x="0px" y="0px"
	 viewBox="0 0 160 160" style="enable-background:new 0 0 160 160;" xml:space="preserve">
<style type="text/css">
	.st0{fill:#333333;}
	.st1{fill:#3BBE7B;}
	.st2{fill:#FFFFFF;}
</style>
<path class="st0" d="M155.7,160v-4.3h4.3v4.3H155.7z M99.5,138.4h8.6v4.3h-8.6V138.4z M103.8,25.9h4.3v8.6h-4.3V25.9z M151.4,147
	h4.3v-4.3h4.3v8.6h-8.6V147z M151.4,134.1h4.3v8.6h-4.3V134.1z M151.4,129.7v-4.3h8.6v8.6h-4.3v-4.3H151.4z M147,134.1v4.3h-4.3v4.3
	h8.6v4.3H147v4.3h-4.3v4.3h-4.3v-13h-13v4.3h4.3v4.3h-4.3v8.6h-8.6v-4.3h4.3v-4.3h-4.3V147h4.3v-4.3h-8.6v-4.3v-4.3h4.3v4.3h4.3
	v-8.6h-4.3v-4.3v-4.3h-4.3v-4.3h4.3v-4.3v-4.3h4.3v4.3h4.3V104h-13v-4.3v-4.3h4.3v-4.3h4.3v8.6h13v-8.6h4.3v4.3h4.3v4.3h-4.3v4.3
	H134v4.3h4.3v8.6H134v-4.3h-4.3v4.3h-4.3v4.3h4.3v-4.3h4.3v4.3h8.6v4.3h4.3v4.3h4.3v4.3L147,134.1L147,134.1z M138.4,125.4h-13v13
	h13V125.4z M134.1,134.1h-4.3v-4.3h4.3V134.1z M147,116.8v4.3h-4.3v-4.3H147z M151.4,112.4v4.3H147v-4.3H151.4z M155.7,112.4h-4.3
	v-13h4.3v8.6h4.3v13h-8.6v-4.3h4.3V112.4z M147,103.8h-4.3v-4.3h4.3V103.8z M142.7,108.1h-4.3v-4.3h4.3V108.1z M142.7,90.8v-4.3
	h-8.6v4.3h-4.3v-4.3v-4.3h4.3v-4.3h-4.3v4.3h-4.3v4.3v4.3h-4.3v-4.3h-4.3V69.2h-4.3v-4.3h4.3v-4.3h4.3v-4.3h4.3V52h8.6v-4.3h-8.6
	v-4.3h-4.3v4.3h-4.3v-4.3h-4.3v-8.6h4.3v4.3h8.6v-4.3h4.3v8.6h4.3v-8.6h21.6v4.3h-4.3v4.3H147v-4.3h-8.6v4.3h8.6V52h8.6v-4.3h-4.3
	v-4.3h4.3v-4.3h4.3V65h-4.3v-8.6h-4.3V65H147v4.3h-8.6V65h4.3v-4.3h4.3v-4.3h-4.3v-8.6h-4.3v13h-4.3v4.3h-4.3v4.3h-4.3v-4.3h-4.3
	v4.3h4.3v4.3h4.3v-4.3h4.3v4.3h4.3v8.6h8.6v8.6h4.3v-8.6h4.3v-8.6h4.3v13h-4.3v8.6h-13L142.7,90.8L142.7,90.8z M151.4,82.2H147v-8.6
	h4.3L151.4,82.2L151.4,82.2z M108.1,121.1h-8.6v-4.3h4.3v-4.3v-4.3v-4.3h4.3v4.3v4.3h4.3v4.3h-4.3
	C108.1,116.8,108.1,121.1,108.1,121.1z M95.1,121.1v4.3h-4.3v4.3h-8.6v-4.3h4.3v-4.3h4.3v-4.3v-4.3h4.3v-4.3v-4.3v-4.3h4.3v4.3v4.3
	v4.3v4.3h-4.3C95.1,116.8,95.1,121.1,95.1,121.1z M95.1,95.1v4.3h-8.6v4.3h-8.6v-4.3v-4.3h-4.3v-4.3h13v4.3h4.3v-4.3h-4.3v-4.3h-4.3
	v-4.3v-4.3h8.6v-4.3h4.3v4.3v4.3h-4.3v4.3h8.6v4.3h8.6v4.3v4.3h-8.6v-4.3H95.1z M95.1,60.5h-4.3v-4.3h-4.3v4.3h-4.3v-4.3h-8.6v-4.3
	h-4.3v4.3H65V34.6h4.3v13h4.3v-13h4.3V26h-4.3v-4.3h8.6v-4.3V13h-4.3V8.6h13V13h13v4.3h-4.3v13h-4.3V26H91v-4.3h4.3v-4.3H91v4.3
	h-4.3V26h-4.3v4.3h4.3V26H91v4.3h4.3v4.3H91v8.6h4.3v-4.3h13v8.6h-8.6v4.3h4.3v4.3v4.3h4.3v4.3h-8.6v8.6h-4.3V60.5H95.1z M86.5,34.6
	h-4.3v4.3h-4.3v4.3h4.3v4.3h-4.3v4.3h4.3v-4.3h4.3V34.6z M73.5,17.3V13h4.3v4.3H73.5z M69.2,21.6h-4.3v-4.3h-4.3V13h4.3V0h13v4.3
	h-4.3V13h-4.3L69.2,21.6L69.2,21.6z M56.2,17.3h-8.6V13h4.3V8.6h4.3V4.3h-8.6V0h13v13h-4.3L56.2,17.3L56.2,17.3z M43.2,8.6V4.3h4.3
	v4.3H43.2z M43.2,17.3h-4.3v13h-4.3v-26h4.3v4.3h4.3V17.3z M47.6,25.9v4.3h-4.3v-4.3C43.3,25.9,47.6,25.9,47.6,25.9z M43.2,34.6v4.3
	h-8.6v4.3h-4.3v-4.3H26v4.3h-4.3v8.6h-4.3v-4.3H13v-4.3h4.3v-4.3h4.3v-4.3h17.3v-4.3h4.3C43.2,30.3,43.2,34.6,43.2,34.6z M43.2,47.6
	h-8.6v-4.3h8.6C43.2,43.3,43.2,47.6,43.2,47.6z M47.6,51.9h8.6v4.3h-8.6v4.3h-4.3v8.6H39v-13h-4.3v-4.3h8.6v-4.3h4.3
	C47.6,47.5,47.6,51.9,47.6,51.9z M47.6,64.9h4.3v-4.3h4.3v-4.3h8.6v4.3h4.3v-4.3h4.3v13h-4.3V65h-4.3v4.3h4.3v4.3h-8.6v-4.3h-8.6
	v4.3h4.3v8.6h-4.3v-4.3h-4.3v-4.3h-4.3v-4.3h4.3C47.6,69.3,47.6,64.9,47.6,64.9z M38.9,77.8v4.3h-4.3v-4.3h-4.3v-4.3h13v4.3H38.9z
	 M21.6,77.8h8.6v4.3h-4.3v4.3h-4.3v4.3h-4.3v-8.6H13v8.6H4.3v-8.6h4.3v-8.6h8.6v-4.3H13v-4.3h4.3v-4.3h4.3v-4.3h4.3v4.3h4.3v4.3
	h-4.3v4.3h4.3v4.3h-8.6C21.6,73.5,21.6,77.8,21.6,77.8z M8.6,73.5H4.3v-4.3H0v-26h4.3v-4.3h4.3v4.3v4.3H4.3v13H13v4.3H8.6V73.5z
	 M17.3,95.1H13v-4.3h4.3V95.1z M21.6,99.5h4.3v4.3h4.3v-4.3h4.3v-4.3h17.3v4.3v4.3h-4.3v-4.3h-4.3v8.6h4.3v4.3v4.3h4.3v-4.3v-4.3
	h4.3v-4.3h4.3v-4.3v-4.3h4.3v13H82v4.3h-8.6v4.3v4.3h-4.3v4.3h-4.3v-4.3h-8.6v8.6h-4.3v-8.6h-8.6v8.6H39v8.6h-4.3v-13H39V121h-4.3
	v-4.3h8.6v-4.3H39v-4.3h-4.3v8.6h-8.6v-4.3h4.3v-4.3h-4.3v4.3h-4.3v-4.3v-4.3h-4.3v-4.3v-4.3h4.3v4.3H21.6z M56.2,116.8h8.6v-4.3
	h-8.6C56.2,112.5,56.2,116.8,56.2,116.8z M51.9,134.1h-4.3v4.3h4.3V134.1h4.3v17.3h-4.3V147h-4.3v-4.3h-4.3v-13h8.6V134.1z
	 M69.2,99.5h4.3v4.3h-4.3V99.5z M60.5,155.7h-4.3v-4.3h4.3V155.7z M60.5,151.4V147h4.3v-4.3h-4.3v-4.3h4.3v-4.3h4.3v4.3h8.6v-4.3
	h-8.6v-4.3h13V147h-4.3v-4.3h-8.6v4.3v4.3h4.3V147h4.3v4.3h8.6v-13H95v4.3h-4.3v13H64.9v-4.3L60.5,151.4L60.5,151.4z M77.8,121.1
	h4.3v4.3h-4.3V121.1z M56.2,95.1h-4.3v-4.3v-4.3h4.3v-4.3h4.3v4.3h8.6v-4.3h4.3v8.6H56.2V95.1z M64.9,77.8h4.3v4.3h-4.3V77.8z
	 M43.2,86.5v-4.3v-4.3h4.3v4.3h4.3v4.3H43.2z M43.2,86.5v4.3h-8.6v4.3h-4.3v-4.3H26v-4.3h4.3v-4.3h4.3v4.3H43.2z M60.5,129.7v-4.3
	h4.3v4.3H60.5z M25.9,99.5v-4.3h4.3v4.3H25.9z M47.6,43.2h-4.3v-4.3h4.3v-4.3h8.6v4.3h-4.3v4.3h4.3v4.3h-8.6V43.2z M60.5,38.9v4.3
	h-4.3v-4.3H60.5z M60.5,47.6v4.3h-4.3v-4.3H60.5z M60.5,25.9h-4.3v4.3h-4.3v-8.6h4.3v-4.3h4.3v4.3h4.3v13h-4.3
	C60.5,34.6,60.5,25.9,60.5,25.9z M69.2,30.3V26h4.3v4.3H69.2z M82.2,69.2h-4.3v-8.6h4.3V69.2z M73.5,73.5v4.3h-4.3v-4.3H73.5z
	 M86.5,64.9h4.3v8.6h-4.3V64.9z M112.4,125.4v4.3v4.3h-13v-4.3h-4.3v-4.3C95.1,125.4,112.4,125.4,112.4,125.4z M147,160h-4.3v-4.3
	h4.3V160z M129.7,160v-4.3h8.6v4.3H129.7z M112.4,155.7v-4.3h4.3v4.3H112.4z M108.1,160v-4.3h4.3v4.3H108.1z M108.1,147h4.3v4.3
	h-4.3V147z M95.1,134.1h-4.3v-4.3h4.3V134.1z M99.5,147h4.3v13h-13v-4.3h8.6L99.5,147L99.5,147z M64.9,160h-4.3v-4.3h4.3V160z
	 M43.2,151.4h-8.6V147h4.3v-4.3h4.3C43.2,142.7,43.2,151.4,43.2,151.4z M47.6,155.7h4.3v4.3h-8.6v-8.6h4.3
	C47.6,151.4,47.6,155.7,47.6,155.7z M17.3,112.4H13v-4.3v-4.3h4.3v4.3V112.4z M0,108.1v-4.3h4.3v4.3H0z M4.3,99.5v-4.3h4.3v4.3H13
	v4.3H4.3V99.5z M13,34.6v4.3H8.6v-4.3H13z M30.3,51.9v4.3H26v-4.3H30.3z M34.6,64.9v4.3h-4.3v-4.3H34.6z M30.3,47.6H26v-4.3h4.3
	V47.6z M13,56.2v-4.3h4.3v4.3H13z M108.1,8.6h8.6V13v4.3h-8.6V13V8.6z M103.8,4.3h4.3v4.3h-4.3V4.3z M99.5,0h4.3v4.3h-4.3V0z
	 M108.1,21.6h-4.3v-4.3h4.3V21.6z M112.4,56.2v4.3h-4.3v-4.3H112.4z M103.8,82.2h4.3v4.3h-4.3V82.2z M99.5,77.8h4.3v4.3h-4.3V77.8z
	 M103.8,69.2h4.3v8.6h-4.3V69.2z M112.4,86.5v4.3h-4.3v-4.3H112.4z M112.4,51.9v-4.3h4.3v4.3H112.4z M116.8,30.3h4.3v-8.6h4.3v13
	h-8.6C116.8,34.7,116.8,30.3,116.8,30.3z M112.4,25.9h4.3v4.3h-4.3V25.9z M151.4,69.2h4.3v4.3h-4.3V69.2z M160,95.1v4.3h-4.3v-4.3
	H160z M129.7,0H160v30.3h-30.3V0z M134.1,25.9h21.6V4.3h-21.6V25.9z M138.4,8.6h13v13h-13V8.6z M121.1,4.3h4.3v13h-4.3V4.3z
	 M112.4,0h4.3v4.3h-4.3V0z M90.8,0h4.3v4.3h-4.3V0z M82.2,0h4.3v4.3h-4.3V0z M0,0h30.3v30.3H0V0z M4.3,25.9h21.6V4.3H4.3V25.9z
	 M8.6,8.6h13v13h-13V8.6z M8.6,116.8H0v-4.3h8.6V116.8z M21.6,116.8v4.3h-4.3v-4.3H21.6z M17.3,125.4H0v-4.3h17.3V125.4z
	 M30.3,121.1v4.3H26v-4.3H30.3z M30.3,160H0v-30.3h30.3V160z M25.9,134.1H4.3v21.6h21.6C25.9,155.7,25.9,134.1,25.9,134.1z
	 M21.6,151.4h-13v-13h13V151.4z"/>
<path class="st1" d="M80,58c12.1,0,22,9.9,22,22s-9.9,22-22,22s-22-9.9-22-22S67.9,58,80,58z"/>
<path class="st2" d="M90.1,89.4c-0.7,0-15.4,0-15.4,0c-1.3,0-2.3-0.9-2.3-2.2c0,0,0-9.8,0-9.9c0-0.5-0.3-1.1-0.8-1.3
	c-0.8-0.5-1.7-1.6-1.7-2.6c0-1.6,1.3-2.8,2.9-2.8c1.6,0,2.9,1.2,2.9,2.8c0,1.3-1.1,2.5-2.4,2.8V78c2.1-0.4,4-2.3,4-4.5
	c0-2.5-2-4.5-4.5-4.5c-2.5,0-4.5,2-4.5,4.5c0,1.6,1.2,3.2,2.5,4c0,0,0,9.4,0,9.8c0,2.2,1.7,3.8,3.9,3.8h17
	C91.6,91,91.1,89.4,90.1,89.4z M71.5,73.5c0-0.7,0.5-1.2,1.2-1.2s1.2,0.5,1.2,1.2s-0.5,1.2-1.2,1.2C72.1,74.7,71.5,74.2,71.5,73.5z
	 M78.1,87.8c-0.8,0-1.6-0.7-1.6-1.6v-2.6h1.6V87.8L78.1,87.8z M89,87.8L89,87.8c-0.8,0-1.6-0.7-1.6-1.6v-2.6H89V87.8L89,87.8z
	 M89,80v1.6h-5.2v6.2l0,0c-0.8,0-1.6-0.7-1.6-1.6v-4.7h-5.7l0,0c-0.9,0-1.6-0.7-1.6-1.6l0,0h7.2v-2.1h-3.6l0,0
	c-0.9,0-1.6-0.7-1.6-1.6l0,0h3.5h7v-1.5c0-1.3-1.1-2.1-2.4-2.1h-5.2l0,0c-0.9,0-1.6-0.7-1.6-1.6l0,0h6.8c2.2,0,4,1.5,4,3.7
	c0,0.4,0,1.2,0,1.9v1.1h-1.6h-3.6V80H89z"/>
</svg>
